<?xml version="1.0" encoding="UTF-8"?>
<svg id="Capa_2" data-name="Capa 2" xmlns="http://www.w3.org/2000/svg" viewBox="0 0 1418.72 362.58">
  <defs>
    <style>
      .cls-1 {
        fill: #1a6dff;
      }

      .cls-2 {
        fill: #2a3547;
      }
    </style>
  </defs>
  <g id="Capa_1-2" data-name="Capa 1">
    <g>
      <path class="cls-1" d="M128.08,78.82h-59.11C27.59,78.82,0,106.41,0,147.79v67c0,41.38,27.59,68.97,68.97,68.97h116.26V0h-57.15v78.82ZM128.08,232.52h-41.38c-17.73,0-29.56-11.82-29.56-29.56v-43.35c0-17.74,11.82-29.56,29.56-29.56h41.38v102.47Z"/>
      <g>
        <rect class="cls-1" x="223.46" y="78.82" width="57.14" height="204.94"/>
        <path class="cls-1" d="M238.44,0h27.59c9.79,0,17.73,7.95,17.73,17.73v23.65c0,9.79-7.95,17.73-17.73,17.73h-27.59c-9.79,0-17.74-7.95-17.74-17.74v-23.64c0-9.79,7.95-17.74,17.74-17.74Z"/>
      </g>
      <path class="cls-1" d="M319.18,147.79v67c0,41.38,27.59,68.97,68.97,68.97h59.11c-.79,16.55-12.61,27.59-29.56,27.59h-86.7v51.23h104.44c41.38,0,68.97-27.59,68.97-68.97V78.82h-116.26c-41.38,0-68.97,27.59-68.97,68.97ZM447.27,130.06v102.47h-41.38c-17.73,0-29.56-11.82-29.56-29.56v-43.35c0-17.74,11.82-29.56,29.56-29.56h41.38Z"/>
      <g>
        <path class="cls-1" d="M557.58,0h27.59c9.79,0,17.73,7.95,17.73,17.73v23.65c0,9.79-7.95,17.73-17.73,17.73h-27.59c-9.79,0-17.74-7.95-17.74-17.74v-23.64c0-9.79,7.95-17.74,17.74-17.74Z"/>
        <rect class="cls-1" x="542.6" y="78.82" width="57.15" height="204.94"/>
      </g>
      <path class="cls-1" d="M715.24,203.08v-72.91h45.32v-51.23h-45.32V.06h-57.14v78.88h-19.71v51.23h19.71v84.73c0,41.38,27.59,68.97,68.97,68.97h33.5v-51.23h-15.76c-17.74,0-29.56-11.82-29.56-29.56Z"/>
      <g>
        <path class="cls-2" d="M912.29,78.88h-59.12V.06h-57.15v283.76h116.26c41.38,0,68.97-27.59,68.97-68.97v-67c0-41.38-27.59-68.97-68.97-68.97ZM924.12,203.03c0,17.73-11.82,29.56-29.56,29.56h-41.38v-102.47h41.38c17.74,0,29.56,11.82,29.56,29.56v43.35Z"/>
        <path class="cls-2" d="M1136.93,232.52h-33.5c-17.73,0-29.56-11.82-29.56-29.56v-124.14h-57.15v135.97c0,41.38,27.59,68.97,68.97,68.97h108.38V78.82h-57.14v153.7Z"/>
        <path class="cls-2" d="M1389.95,78.82c-35.86,0-63.06,20.49-72.51,54.78l-18.52,67c-5.52,20.49-20.89,31.92-42.56,31.92h-26.8v51.23h48.08c35.86,0,63.45-20.49,72.91-54.78l18.52-67c5.52-20.49,20.89-31.92,42.56-31.92h7.09v-51.23h-28.77Z"/>
      </g>
    </g>
  </g>
</svg>